<mxfile host="app.diagrams.net" modified="2024-04-16T19:40:49.152Z" agent="Mozilla/5.0 (Windows NT 10.0; Win64; x64) AppleWebKit/537.36 (KHTML, like Gecko) Chrome/123.0.0.0 Safari/537.36" etag="A9Pk_kjqxx9-6YvLMfWa" version="24.2.1" type="github">
  <diagram name="Page-1" id="EGYBzsBPwoEhvbjFoum4">
    <mxGraphModel dx="1076" dy="641" grid="1" gridSize="10" guides="1" tooltips="1" connect="1" arrows="1" fold="1" page="1" pageScale="1" pageWidth="583" pageHeight="827" math="0" shadow="0">
      <root>
        <mxCell id="0" />
        <mxCell id="1" parent="0" />
        <mxCell id="S5K_GllYDOuzO2wY7Hf3-16" value="" style="group" parent="1" vertex="1" connectable="0">
          <mxGeometry x="30" y="80" width="370" height="240" as="geometry" />
        </mxCell>
        <mxCell id="S5K_GllYDOuzO2wY7Hf3-1" value="" style="rounded=0;whiteSpace=wrap;html=1;" parent="S5K_GllYDOuzO2wY7Hf3-16" vertex="1">
          <mxGeometry y="71.11111111111113" width="340" height="133.33333333333334" as="geometry" />
        </mxCell>
        <mxCell id="S5K_GllYDOuzO2wY7Hf3-10" value="" style="group" parent="S5K_GllYDOuzO2wY7Hf3-16" vertex="1" connectable="0">
          <mxGeometry x="25" y="115.55555555555554" width="290" height="75.55555555555557" as="geometry" />
        </mxCell>
        <mxCell id="S5K_GllYDOuzO2wY7Hf3-2" value="&lt;font style=&quot;font-size: 15px;&quot;&gt;PySpark&lt;/font&gt;" style="rounded=1;whiteSpace=wrap;html=1;" parent="S5K_GllYDOuzO2wY7Hf3-10" vertex="1">
          <mxGeometry y="22.22222222222223" width="100" height="53.333333333333336" as="geometry" />
        </mxCell>
        <mxCell id="S5K_GllYDOuzO2wY7Hf3-3" value="&lt;font style=&quot;font-size: 14px;&quot;&gt;main()&lt;/font&gt;" style="text;html=1;align=center;verticalAlign=middle;whiteSpace=wrap;rounded=0;" parent="S5K_GllYDOuzO2wY7Hf3-10" vertex="1">
          <mxGeometry x="20" width="59.99999999999999" height="26.666666666666668" as="geometry" />
        </mxCell>
        <mxCell id="S5K_GllYDOuzO2wY7Hf3-4" value="&lt;span style=&quot;font-size: 15px;&quot;&gt;JVM&lt;/span&gt;" style="rounded=1;whiteSpace=wrap;html=1;" parent="S5K_GllYDOuzO2wY7Hf3-10" vertex="1">
          <mxGeometry x="189.99999999999997" y="22.22222222222223" width="100" height="53.333333333333336" as="geometry" />
        </mxCell>
        <mxCell id="S5K_GllYDOuzO2wY7Hf3-5" value="&lt;font style=&quot;font-size: 14px;&quot;&gt;main()&lt;/font&gt;" style="text;html=1;align=center;verticalAlign=middle;whiteSpace=wrap;rounded=0;" parent="S5K_GllYDOuzO2wY7Hf3-10" vertex="1">
          <mxGeometry x="210" width="59.99999999999999" height="26.666666666666668" as="geometry" />
        </mxCell>
        <mxCell id="S5K_GllYDOuzO2wY7Hf3-7" value="" style="endArrow=open;html=1;rounded=0;exitX=1;exitY=0.5;exitDx=0;exitDy=0;entryX=0;entryY=0.5;entryDx=0;entryDy=0;endFill=0;strokeWidth=1;endSize=8;" parent="S5K_GllYDOuzO2wY7Hf3-10" source="S5K_GllYDOuzO2wY7Hf3-2" target="S5K_GllYDOuzO2wY7Hf3-4" edge="1">
          <mxGeometry relative="1" as="geometry">
            <mxPoint x="119.99999999999999" y="160" as="sourcePoint" />
            <mxPoint x="280" y="160" as="targetPoint" />
          </mxGeometry>
        </mxCell>
        <mxCell id="S5K_GllYDOuzO2wY7Hf3-11" value="Py4J" style="text;html=1;align=center;verticalAlign=middle;whiteSpace=wrap;rounded=0;" parent="S5K_GllYDOuzO2wY7Hf3-10" vertex="1">
          <mxGeometry x="115" y="26.666666666666668" width="59.99999999999999" height="26.666666666666668" as="geometry" />
        </mxCell>
        <mxCell id="S5K_GllYDOuzO2wY7Hf3-12" value="&lt;font style=&quot;font-size: 15px;&quot;&gt;Application Master Container&lt;/font&gt;" style="text;html=1;align=center;verticalAlign=middle;whiteSpace=wrap;rounded=0;" parent="S5K_GllYDOuzO2wY7Hf3-16" vertex="1">
          <mxGeometry x="70" y="88.8888888888889" width="200" height="26.666666666666664" as="geometry" />
        </mxCell>
        <mxCell id="S5K_GllYDOuzO2wY7Hf3-15" value="&lt;font style=&quot;font-size: 15px;&quot;&gt;Worker Node&lt;/font&gt;" style="text;html=1;align=center;verticalAlign=middle;whiteSpace=wrap;rounded=0;" parent="S5K_GllYDOuzO2wY7Hf3-16" vertex="1">
          <mxGeometry x="10" y="213.33333333333331" width="119.99999999999999" height="26.666666666666664" as="geometry" />
        </mxCell>
        <mxCell id="S5K_GllYDOuzO2wY7Hf3-19" value="&lt;span style=&quot;font-size: 16px;&quot;&gt;spark.driver.memoryOverhead=max(spark.driver.memory*10,384mb)&lt;/span&gt;" style="text;html=1;align=left;verticalAlign=middle;whiteSpace=wrap;rounded=0;" parent="1" vertex="1">
          <mxGeometry x="30" y="330" width="510" height="30" as="geometry" />
        </mxCell>
        <mxCell id="S5K_GllYDOuzO2wY7Hf3-13" value="&lt;font style=&quot;font-size: 17px;&quot;&gt;1.spark.driver.cores&amp;nbsp; --2&lt;/font&gt;&lt;div style=&quot;font-size: 17px;&quot;&gt;&lt;font style=&quot;font-size: 17px;&quot;&gt;2.spark.driver.memory --4G&lt;/font&gt;&lt;/div&gt;&lt;div style=&quot;font-size: 17px;&quot;&gt;&lt;font style=&quot;font-size: 17px;&quot;&gt;3.spark.driver.memoryOverhead --400mb/1G&lt;/font&gt;&lt;/div&gt;" style="text;html=1;align=left;verticalAlign=middle;whiteSpace=wrap;rounded=0;fontSize=16;" parent="1" vertex="1">
          <mxGeometry x="30" y="70" width="430" height="70" as="geometry" />
        </mxCell>
        <mxCell id="S5K_GllYDOuzO2wY7Hf3-20" value="" style="endArrow=none;html=1;rounded=0;" parent="1" edge="1">
          <mxGeometry width="50" height="50" relative="1" as="geometry">
            <mxPoint x="3" y="380" as="sourcePoint" />
            <mxPoint x="580" y="380" as="targetPoint" />
          </mxGeometry>
        </mxCell>
        <mxCell id="S5K_GllYDOuzO2wY7Hf3-23" value="&lt;div style=&quot;font-size: 11px;&quot;&gt;1. spark.executor.cores -&amp;gt; How many CPU cores to allocate for each executor -- 5 (magic number)&lt;/div&gt;&lt;div style=&quot;font-size: 11px;&quot;&gt;2. spark.executor.memory -&amp;gt; How much JVM Heap memory to allocate for each executor --10G(2G/core)&lt;/div&gt;&lt;div style=&quot;font-size: 11px;&quot;&gt;&lt;span style=&quot;white-space: normal; font-size: 11px;&quot;&gt;&lt;span style=&quot;white-space: pre; font-size: 11px;&quot;&gt;&#x9;&lt;/span&gt;1. spark.memory.fraction -&amp;gt; What percentage of memory is used by Spark&lt;/span&gt;&lt;/div&gt;&lt;div style=&quot;font-size: 11px;&quot;&gt;&lt;span style=&quot;white-space: normal; font-size: 11px;&quot;&gt;&lt;span style=&quot;white-space: pre; font-size: 11px;&quot;&gt;&#x9;&lt;/span&gt;2. spark.memory.storageFraction -&amp;gt; How much is protected from cache eviction&lt;/span&gt;&lt;/div&gt;&lt;div style=&quot;font-size: 11px;&quot;&gt;&lt;span style=&quot;white-space: normal; font-size: 11px;&quot;&gt;&lt;span style=&quot;white-space: pre; font-size: 11px;&quot;&gt;&#x9;&lt;/span&gt;3. spark.python.worker.memory -&amp;gt; What is the maximum for the Py4J bridge&lt;/span&gt;&lt;/div&gt;&lt;div style=&quot;font-size: 11px;&quot;&gt;3. spark.executor.memoryOverhead -&amp;gt; How much non-JVM off-heap memory to allocate for each executor&lt;/div&gt;&lt;div style=&quot;font-size: 11px;&quot;&gt;&lt;span style=&quot;white-space: pre;&quot;&gt;&#x9;&lt;/span&gt;&lt;span style=&quot;white-space: pre;&quot;&gt;&#x9;&lt;/span&gt;&lt;span style=&quot;white-space: pre;&quot;&gt;&#x9;&lt;/span&gt;-&amp;gt;max(spark.executor.memory*spark.executor.memoryOverheadFactor,384)&lt;br&gt;&lt;/div&gt;&lt;div style=&quot;font-size: 11px;&quot;&gt;&lt;span style=&quot;white-space: pre;&quot;&gt;&#x9;&lt;/span&gt;&lt;span style=&quot;white-space: pre;&quot;&gt;&#x9;&lt;/span&gt;&lt;span style=&quot;white-space: pre;&quot;&gt;&#x9;&lt;/span&gt;-&amp;gt;max(10G * 0.10,384 MB) -- 1G&lt;br&gt;&lt;/div&gt;&lt;div style=&quot;font-size: 11px;&quot;&gt;&lt;span style=&quot;white-space: normal; font-size: 11px;&quot;&gt;&lt;span style=&quot;white-space: pre; font-size: 11px;&quot;&gt;&#x9;&lt;/span&gt;1. spark.executor.memoryOverheadFactor -&amp;gt; What percentage is used to calculate memoryOverhead&lt;/span&gt;&lt;/div&gt;&lt;div style=&quot;font-size: 11px;&quot;&gt;&lt;/div&gt;&lt;div style=&quot;font-size: 11px;&quot;&gt;&lt;span style=&quot;white-space: normal; font-size: 11px;&quot;&gt;&lt;span style=&quot;white-space: pre; font-size: 11px;&quot;&gt;&#x9;&lt;/span&gt;2. spark.executor.pyspark.memory -&amp;gt; What is the maximum for Python worker&lt;/span&gt;&lt;/div&gt;&lt;div style=&quot;font-size: 11px;&quot;&gt;4. spark.executor.instances -&amp;gt; How many executors --160&amp;nbsp;&lt;/div&gt;&lt;div style=&quot;font-size: 11px;&quot;&gt;&lt;span style=&quot;white-space: pre;&quot;&gt;&#x9;&lt;/span&gt;&lt;span style=&quot;white-space: pre;&quot;&gt;&#x9;&lt;span style=&quot;white-space: pre;&quot;&gt;&#x9;&lt;/span&gt;&lt;/span&gt;-&amp;gt;number of partitions (for most of the execution plan)/number of cores&amp;nbsp;&lt;/div&gt;" style="text;html=1;align=left;verticalAlign=top;whiteSpace=wrap;rounded=0;fontSize=11;spacingTop=1;spacing=4;fontFamily=Comic Sans MS;horizontal=1;" parent="1" vertex="1">
          <mxGeometry x="23" y="390" width="557" height="180" as="geometry" />
        </mxCell>
        <mxCell id="S5K_GllYDOuzO2wY7Hf3-49" value="" style="group" parent="1" vertex="1" connectable="0">
          <mxGeometry x="30" y="570" width="333" height="240" as="geometry" />
        </mxCell>
        <mxCell id="S5K_GllYDOuzO2wY7Hf3-26" value="" style="rounded=0;whiteSpace=wrap;html=1;" parent="S5K_GllYDOuzO2wY7Hf3-49" vertex="1">
          <mxGeometry x="35" width="120" height="240" as="geometry" />
        </mxCell>
        <mxCell id="S5K_GllYDOuzO2wY7Hf3-27" value="" style="endArrow=none;html=1;rounded=0;" parent="S5K_GllYDOuzO2wY7Hf3-49" edge="1">
          <mxGeometry width="50" height="50" relative="1" as="geometry">
            <mxPoint x="155" y="20" as="sourcePoint" />
            <mxPoint x="35" y="20" as="targetPoint" />
          </mxGeometry>
        </mxCell>
        <mxCell id="S5K_GllYDOuzO2wY7Hf3-31" value="&lt;font style=&quot;font-size: 6px;&quot;&gt;Reserved memory=300mb/per executor&lt;/font&gt;" style="text;html=1;align=center;verticalAlign=middle;whiteSpace=wrap;rounded=0;" parent="S5K_GllYDOuzO2wY7Hf3-49" vertex="1">
          <mxGeometry x="35" width="120" height="20" as="geometry" />
        </mxCell>
        <mxCell id="S5K_GllYDOuzO2wY7Hf3-34" value="" style="rounded=0;whiteSpace=wrap;html=1;" parent="S5K_GllYDOuzO2wY7Hf3-49" vertex="1">
          <mxGeometry x="35" y="90" width="120" height="150" as="geometry" />
        </mxCell>
        <mxCell id="S5K_GllYDOuzO2wY7Hf3-35" value="&lt;font style=&quot;font-size: 11px;&quot;&gt;spark.memory.fraction=0.6&lt;/font&gt;" style="text;html=1;align=center;verticalAlign=middle;whiteSpace=wrap;rounded=0;rotation=-90;" parent="S5K_GllYDOuzO2wY7Hf3-49" vertex="1">
          <mxGeometry x="-55" y="150" width="140" height="30" as="geometry" />
        </mxCell>
        <mxCell id="S5K_GllYDOuzO2wY7Hf3-36" value="" style="rounded=0;whiteSpace=wrap;html=1;" parent="S5K_GllYDOuzO2wY7Hf3-49" vertex="1">
          <mxGeometry x="35" y="90" width="30" height="150" as="geometry" />
        </mxCell>
        <mxCell id="S5K_GllYDOuzO2wY7Hf3-39" value="User memory=5820 MB" style="text;html=1;align=center;verticalAlign=middle;whiteSpace=wrap;rounded=0;horizontal=0;" parent="S5K_GllYDOuzO2wY7Hf3-49" vertex="1">
          <mxGeometry x="35" y="100" width="30" height="130" as="geometry" />
        </mxCell>
        <mxCell id="S5K_GllYDOuzO2wY7Hf3-40" value="&lt;font style=&quot;font-size: 7px;&quot;&gt;Protected for cache&lt;/font&gt;" style="rounded=0;whiteSpace=wrap;html=1;" parent="S5K_GllYDOuzO2wY7Hf3-49" vertex="1">
          <mxGeometry x="65" y="160" width="90" height="80" as="geometry" />
        </mxCell>
        <mxCell id="S5K_GllYDOuzO2wY7Hf3-41" value="&lt;font style=&quot;font-size: 9px;&quot;&gt;spark.memory.storageFraction= 0.5&lt;/font&gt;" style="text;html=1;align=center;verticalAlign=middle;whiteSpace=wrap;rounded=0;horizontal=1;" parent="S5K_GllYDOuzO2wY7Hf3-49" vertex="1">
          <mxGeometry x="185" y="167.5" width="148" height="65" as="geometry" />
        </mxCell>
        <mxCell id="S5K_GllYDOuzO2wY7Hf3-42" value="" style="shape=curlyBracket;whiteSpace=wrap;html=1;rounded=1;flipH=1;labelPosition=right;verticalLabelPosition=middle;align=left;verticalAlign=middle;" parent="S5K_GllYDOuzO2wY7Hf3-49" vertex="1">
          <mxGeometry x="167" y="160" width="20" height="80" as="geometry" />
        </mxCell>
        <mxCell id="S5K_GllYDOuzO2wY7Hf3-43" value="&lt;span style=&quot;font-size: 7px;&quot;&gt;User memory=2910 MB&lt;/span&gt;" style="text;html=1;align=center;verticalAlign=middle;whiteSpace=wrap;rounded=0;" parent="S5K_GllYDOuzO2wY7Hf3-49" vertex="1">
          <mxGeometry x="65" y="100" width="80" height="45" as="geometry" />
        </mxCell>
        <mxCell id="S5K_GllYDOuzO2wY7Hf3-44" value="&lt;span style=&quot;font-size: 7px;&quot;&gt;User memory=3880 MB&lt;/span&gt;" style="text;html=1;align=center;verticalAlign=middle;whiteSpace=wrap;rounded=0;" parent="S5K_GllYDOuzO2wY7Hf3-49" vertex="1">
          <mxGeometry x="55" y="30" width="80" height="45" as="geometry" />
        </mxCell>
        <mxCell id="S5K_GllYDOuzO2wY7Hf3-45" value="" style="shape=curlyBracket;whiteSpace=wrap;html=1;rounded=1;flipH=1;labelPosition=right;verticalLabelPosition=middle;align=left;verticalAlign=middle;" parent="S5K_GllYDOuzO2wY7Hf3-49" vertex="1">
          <mxGeometry x="167" y="90" width="20" height="70" as="geometry" />
        </mxCell>
        <mxCell id="S5K_GllYDOuzO2wY7Hf3-47" value="&lt;font style=&quot;font-size: 10px;&quot;&gt;580 MB per core&lt;/font&gt;" style="text;html=1;align=center;verticalAlign=middle;whiteSpace=wrap;rounded=0;" parent="S5K_GllYDOuzO2wY7Hf3-49" vertex="1">
          <mxGeometry x="177" y="110" width="98" height="30" as="geometry" />
        </mxCell>
      </root>
    </mxGraphModel>
  </diagram>
</mxfile>
